<svg xmlns="http://www.w3.org/2000/svg" viewBox="0 0 143 143"><defs><style>.cls-1,.cls-2{fill:none;}.cls-2{stroke:#fff;stroke-miterlimit:10;stroke-width:1.3px;}</style></defs><g id="Layer_2" data-name="Layer 2"><g id="_01_main" data-name="01_main"><rect class="cls-1" width="143" height="143"/><polygon class="cls-2" points="92.17 133.69 50.07 133.69 50.46 23.87 92.56 23.87 92.17 133.69"/><polyline class="cls-2" points="50.07 31.96 45.66 31.96 45.66 135.15"/><polyline class="cls-2" points="92.66 31.96 97.07 31.96 97.07 135.15"/><polyline class="cls-2" points="88.06 32.98 83.55 32.98 83.55 40.15"/><polyline class="cls-2" points="80.02 32.98 75.51 32.98 75.51 40.15"/><polyline class="cls-2" points="88.06 42.82 83.55 42.82 83.55 49.98"/><polyline class="cls-2" points="80.02 42.82 75.51 42.82 75.51 49.98"/><polyline class="cls-2" points="88.06 52.66 83.55 52.66 83.55 59.83"/><polyline class="cls-2" points="80.02 52.66 75.51 52.66 75.51 59.83"/><polyline class="cls-2" points="88.06 62.5 83.55 62.5 83.55 69.67"/><polyline class="cls-2" points="80.02 62.5 75.51 62.5 75.51 69.67"/><polyline class="cls-2" points="88.06 72.34 83.55 72.34 83.55 79.51"/><polyline class="cls-2" points="80.02 72.34 75.51 72.34 75.51 79.51"/><polyline class="cls-2" points="88.06 82.18 83.55 82.18 83.55 89.35"/><polyline class="cls-2" points="80.02 82.18 75.51 82.18 75.51 89.35"/><polyline class="cls-2" points="88.06 92.02 83.55 92.02 83.55 99.19"/><polyline class="cls-2" points="80.02 92.02 75.51 92.02 75.51 99.19"/><polyline class="cls-2" points="88.06 101.86 83.55 101.86 83.55 109.03"/><polyline class="cls-2" points="80.02 101.86 75.51 101.86 75.51 109.03"/><polyline class="cls-2" points="88.06 111.7 83.55 111.7 83.55 118.87"/><polyline class="cls-2" points="80.02 111.7 75.51 111.7 75.51 118.87"/><polyline class="cls-2" points="68.4 32.98 63.89 32.98 63.89 40.15"/><polyline class="cls-2" points="60.36 32.98 55.85 32.98 55.85 40.15"/><polyline class="cls-2" points="68.4 42.82 63.89 42.82 63.89 49.98"/><polyline class="cls-2" points="60.36 42.82 55.85 42.82 55.85 49.98"/><polyline class="cls-2" points="68.4 52.66 63.89 52.66 63.89 59.83"/><polyline class="cls-2" points="60.36 52.66 55.85 52.66 55.85 59.83"/><polyline class="cls-2" points="68.4 62.5 63.89 62.5 63.89 69.67"/><polyline class="cls-2" points="60.36 62.5 55.85 62.5 55.85 69.67"/><polyline class="cls-2" points="68.4 72.34 63.89 72.34 63.89 79.51"/><polyline class="cls-2" points="60.36 72.34 55.85 72.34 55.85 79.51"/><polyline class="cls-2" points="68.4 82.18 63.89 82.18 63.89 89.35"/><polyline class="cls-2" points="60.36 82.18 55.85 82.18 55.85 89.35"/><polyline class="cls-2" points="68.4 92.02 63.89 92.02 63.89 99.19"/><polyline class="cls-2" points="60.36 92.02 55.85 92.02 55.85 99.19"/><polyline class="cls-2" points="68.4 101.86 63.89 101.86 63.89 109.03"/><polyline class="cls-2" points="60.36 101.86 55.85 101.86 55.85 109.03"/><polyline class="cls-2" points="68.4 111.7 63.89 111.7 63.89 118.87"/><polyline class="cls-2" points="60.36 111.7 55.85 111.7 55.85 118.87"/><polyline class="cls-2" points="68.62 133.69 68.62 123.73 75.98 123.73 75.98 133.69"/><line class="cls-2" x1="71.98" y1="123.73" x2="71.98" y2="133.69"/><polyline class="cls-2" points="40.17 69.59 45.66 69.59 45.66 135.15"/><polyline class="cls-2" points="16.53 69.59 11.04 69.59 11.04 135.15"/><polygon class="cls-2" points="40.02 134.22 16.33 134.22 16.54 64.44 40.23 64.44 40.02 134.22"/><polyline class="cls-2" points="35.3 75.82 30.79 75.82 30.79 81.57"/><polyline class="cls-2" points="27.25 75.82 22.74 75.82 22.74 81.57"/><polyline class="cls-2" points="35.3 83.71 30.79 83.71 30.79 89.45"/><polyline class="cls-2" points="27.25 83.71 22.74 83.71 22.74 89.45"/><polyline class="cls-2" points="35.3 91.59 30.79 91.59 30.79 97.34"/><polyline class="cls-2" points="27.25 91.59 22.74 91.59 22.74 97.34"/><polyline class="cls-2" points="35.3 99.48 30.79 99.48 30.79 105.22"/><polyline class="cls-2" points="27.25 99.48 22.74 99.48 22.74 105.22"/><polyline class="cls-2" points="35.3 107.37 30.79 107.37 30.79 113.11"/><polyline class="cls-2" points="27.25 107.37 22.74 107.37 22.74 113.11"/><polyline class="cls-2" points="33.74 115.25 29.23 115.25 29.23 121"/><polyline class="cls-2" points="25.7 115.25 21.19 115.25 21.19 121"/><polyline class="cls-2" points="24.92 133.98 24.92 125.99 32.29 125.99 32.29 133.98"/><line class="cls-2" x1="28.28" y1="125.99" x2="28.28" y2="133.98"/><polyline class="cls-2" points="126.47 70.35 131.96 70.35 131.96 135.15"/><polyline class="cls-2" points="102.83 70.35 97.34 70.35 97.34 135.15"/><polygon class="cls-2" points="126.31 134.23 102.63 134.23 102.84 65.26 126.53 65.26 126.31 134.23"/><polyline class="cls-2" points="121.6 76.51 117.08 76.51 117.08 82.19"/><polyline class="cls-2" points="113.55 76.51 109.04 76.51 109.04 82.19"/><polyline class="cls-2" points="121.6 84.31 117.08 84.31 117.08 89.98"/><polyline class="cls-2" points="113.55 84.31 109.04 84.31 109.04 89.98"/><polyline class="cls-2" points="121.6 92.1 117.08 92.1 117.08 97.78"/><polyline class="cls-2" points="113.55 92.1 109.04 92.1 109.04 97.78"/><polyline class="cls-2" points="121.6 99.89 117.08 99.89 117.08 105.57"/><polyline class="cls-2" points="113.55 99.89 109.04 99.89 109.04 105.57"/><polyline class="cls-2" points="121.6 107.69 117.08 107.69 117.08 113.37"/><polyline class="cls-2" points="113.55 107.69 109.04 107.69 109.04 113.37"/><polyline class="cls-2" points="120.04 115.48 115.53 115.48 115.53 121.16"/><polyline class="cls-2" points="112 115.48 107.49 115.48 107.49 121.16"/><polyline class="cls-2" points="111.22 133.99 111.22 126.1 118.59 126.1 118.59 133.99"/><line class="cls-2" x1="114.58" y1="126.1" x2="114.58" y2="133.99"/></g></g></svg>