<svg xmlns="http://www.w3.org/2000/svg" viewBox="0 0 143 143"><defs><style>.cls-1,.cls-2{fill:none;}.cls-2{stroke:#fff;stroke-miterlimit:10;stroke-width:1.3px;}</style></defs><g id="Layer_2" data-name="Layer 2"><g id="_01_main" data-name="01_main"><rect class="cls-1" width="143" height="143"/><rect class="cls-2" x="64.16" y="28.55" width="9.66" height="9.98"/><polygon class="cls-2" points="73.54 134.9 55.69 134.9 55.69 51.44 60.38 51.44 60.38 38.59 73.82 38.59 73.82 134.69 73.54 134.9"/><polyline class="cls-2" points="73.82 51.44 60.38 51.44 60.38 134.87"/><line class="cls-2" x1="64.89" y1="55.97" x2="64.89" y2="59.04"/><line class="cls-2" x1="69.28" y1="55.97" x2="69.28" y2="59.04"/><line class="cls-2" x1="64.89" y1="43.01" x2="64.89" y2="50.95"/><line class="cls-2" x1="69.28" y1="43.01" x2="69.28" y2="50.95"/><line class="cls-2" x1="64.89" y1="63.1" x2="64.89" y2="66.18"/><line class="cls-2" x1="69.28" y1="63.1" x2="69.28" y2="66.18"/><line class="cls-2" x1="64.89" y1="70.23" x2="64.89" y2="73.31"/><line class="cls-2" x1="69.28" y1="70.23" x2="69.28" y2="73.31"/><line class="cls-2" x1="64.89" y1="77.36" x2="64.89" y2="80.44"/><line class="cls-2" x1="69.28" y1="77.36" x2="69.28" y2="80.44"/><line class="cls-2" x1="64.89" y1="84.5" x2="64.89" y2="87.57"/><line class="cls-2" x1="69.28" y1="84.5" x2="69.28" y2="87.57"/><line class="cls-2" x1="64.89" y1="91.63" x2="64.89" y2="94.71"/><line class="cls-2" x1="69.28" y1="91.63" x2="69.28" y2="94.71"/><line class="cls-2" x1="64.89" y1="98.76" x2="64.89" y2="101.84"/><line class="cls-2" x1="69.28" y1="98.76" x2="69.28" y2="101.84"/><line class="cls-2" x1="64.89" y1="105.89" x2="64.89" y2="108.97"/><line class="cls-2" x1="69.28" y1="105.89" x2="69.28" y2="108.97"/><line class="cls-2" x1="64.89" y1="113.03" x2="64.89" y2="116.1"/><line class="cls-2" x1="69.28" y1="113.03" x2="69.28" y2="116.1"/><polyline class="cls-2" points="73.86 21.04 86.81 36.65 86.81 135.13 73.87 135.15 73.87 7.85"/><line class="cls-2" x1="86.99" y1="42.54" x2="73.86" y2="51.59"/><line class="cls-2" x1="73.86" y1="51.61" x2="86.99" y2="60.67"/><line class="cls-2" x1="86.99" y1="60.58" x2="73.86" y2="69.64"/><line class="cls-2" x1="73.86" y1="69.66" x2="86.99" y2="78.71"/><line class="cls-2" x1="86.78" y1="78.36" x2="73.65" y2="87.42"/><line class="cls-2" x1="73.65" y1="87.44" x2="86.78" y2="96.49"/><line class="cls-2" x1="86.78" y1="96.4" x2="73.65" y2="105.46"/><line class="cls-2" x1="73.65" y1="105.48" x2="86.78" y2="114.54"/><polyline class="cls-2" points="48.93 56.67 48.93 82.17 44.6 80.72 44.6 88.42 48.93 89.38 48.93 134.92"/><polyline class="cls-2" points="48.93 69.82 34.34 78.48 34.34 134.92"/><line class="cls-2" x1="40.6" y1="79.6" x2="40.6" y2="88.58"/><line class="cls-2" x1="44.6" y1="92.43" x2="48.93" y2="93.87"/><line class="cls-2" x1="44.18" y1="96.35" x2="48.51" y2="97.79"/><line class="cls-2" x1="44.18" y1="100.27" x2="48.51" y2="101.71"/><polyline class="cls-2" points="37.39 134.92 37.39 119.69 44.6 120.65 44.6 134.92"/><polyline class="cls-2" points="93.88 56.67 93.88 82.17 98.21 80.72 98.21 88.42 93.88 89.38 93.88 134.92"/><polyline class="cls-2" points="93.88 69.82 108.47 78.48 108.47 134.92"/><line class="cls-2" x1="102.21" y1="79.6" x2="102.21" y2="88.58"/><line class="cls-2" x1="98.21" y1="92.43" x2="93.88" y2="93.87"/><line class="cls-2" x1="98.63" y1="96.35" x2="94.3" y2="97.79"/><line class="cls-2" x1="98.63" y1="100.27" x2="94.3" y2="101.71"/><polyline class="cls-2" points="105.42 134.92 105.42 119.69 100.18 120.65 100.18 134.92"/><polyline class="cls-2" points="34.44 107.4 29.23 107.4 29.23 100.99 19.6 100.99 19.6 134.39"/><line class="cls-2" x1="29.23" y1="107.4" x2="29.23" y2="132.52"/><polyline class="cls-2" points="108.56 107.4 113.77 107.4 113.77 102.16 123.4 102.16 123.4 134.39"/><line class="cls-2" x1="113.77" y1="107.4" x2="113.77" y2="132.52"/></g></g></svg>