<svg xmlns="http://www.w3.org/2000/svg" viewBox="0 0 143 143"><defs><style>.cls-1,.cls-2{fill:none;}.cls-2{stroke:#fff;stroke-miterlimit:10;stroke-width:1.3px;}</style></defs><g id="Layer_2" data-name="Layer 2"><g id="_01_main" data-name="01_main"><rect class="cls-1" width="143" height="143"/><polyline class="cls-2" points="9.88 80.86 65.43 33.21 68.91 30.39"/><line class="cls-2" x1="17.51" y1="80.78" x2="68.99" y2="36.77"/><line class="cls-2" x1="25.66" y1="80.64" x2="68.79" y2="43.65"/><line class="cls-2" x1="33.04" y1="80.71" x2="68.91" y2="50.07"/><line class="cls-2" x1="40.64" y1="80.8" x2="68.91" y2="56.63"/><line class="cls-2" x1="48.44" y1="80.73" x2="68.77" y2="63.35"/><polyline class="cls-2" points="133.76 80.86 78.21 33.21 74.73 30.39"/><line class="cls-2" x1="126.13" y1="80.78" x2="74.65" y2="36.77"/><line class="cls-2" x1="117.97" y1="80.64" x2="74.84" y2="43.65"/><line class="cls-2" x1="110.6" y1="80.71" x2="74.73" y2="50.07"/><line class="cls-2" x1="102.99" y1="80.8" x2="74.72" y2="56.63"/><line class="cls-2" x1="95.2" y1="80.73" x2="74.87" y2="63.35"/><line class="cls-2" x1="56.08" y1="80.8" x2="68.82" y2="69.9"/><line class="cls-2" x1="87.54" y1="80.8" x2="74.8" y2="69.9"/><polygon class="cls-2" points="4.49 86.82 138.53 86.82 138.53 80.7 4.46 80.73 4.49 86.82"/><polyline class="cls-2" points="74.87 86.78 74.87 135.15 68.86 135.15 68.86 86.81"/><polyline class="cls-2" points="68.86 80.71 68.86 23.87 74.87 23.87 74.87 80.72"/></g></g></svg>