<svg xmlns="http://www.w3.org/2000/svg" viewBox="0 0 143 143"><defs><style>.cls-1,.cls-2,.cls-3{fill:none;}.cls-2,.cls-3{stroke:#fff;stroke-width:1.3px;}.cls-2{stroke-miterlimit:10;}.cls-3{stroke-linejoin:round;}</style></defs><g id="Layer_2" data-name="Layer 2"><g id="_01_main" data-name="01_main"><rect class="cls-1" width="143" height="143"/><polyline class="cls-2" points="62.8 133.94 70.3 41.49 84.7 41.49 92.81 133.94"/><line class="cls-2" x1="77.8" y1="41.49" x2="77.8" y2="35.64"/><polyline class="cls-3" points="84.7 41.49 68.62 62.14 86.51 62.14 70.3 41.49"/><polyline class="cls-3" points="86.51 62.14 66.67 86.16 88.62 86.16 68.62 62.14"/><polyline class="cls-3" points="66.67 86.16 77.57 107.84 88.62 86.16"/><line class="cls-3" x1="77.8" y1="116.94" x2="77.8" y2="134.25"/><line class="cls-3" x1="64.1" y1="122.43" x2="91.48" y2="122.43"/><line class="cls-3" x1="63.55" y1="127.84" x2="92" y2="127.84"/><polyline class="cls-3" points="6.58 73.63 18.78 76.83 32.19 90.06"/><line class="cls-3" x1="18.78" y1="76.83" x2="21.61" y2="90.06"/><line class="cls-3" x1="21.11" y1="85.87" x2="27.94" y2="85.87"/><polygon class="cls-2" points="21.61 90.06 21.61 95.76 30.69 95.76 30.69 107.84 41.64 107.84 41.64 95.76 41.64 90.06 21.61 90.06"/><polygon class="cls-2" points="109.71 82.53 109.71 96.33 94.01 96.33 94.01 107.84 109.71 107.84 113.21 107.84 119.61 107.84 119.61 82.53 109.71 82.53"/><path class="cls-2" d="M117.88,82.56A12.94,12.94,0,0,0,109.54,71V67h-9.21v4a12.95,12.95,0,1,0,9.38,24.14"/><line class="cls-2" x1="100.33" y1="70.96" x2="109.54" y2="70.96"/><line class="cls-2" x1="104.93" y1="70.96" x2="104.93" y2="96.01"/><path class="cls-2" d="M61.9,107.87v-52a5,5,0,0,0-5-5h0a5,5,0,0,0-5,5v52"/><line class="cls-2" x1="56.88" y1="50.91" x2="56.88" y2="43.36"/><path class="cls-2" d="M46.67,107.31V53.75a5,5,0,0,0-5-5h0a5,5,0,0,0-5,5V90.26"/><line class="cls-2" x1="41.65" y1="48.78" x2="41.65" y2="36.58"/><rect class="cls-2" x="25.29" y="108.24" width="104.73" height="8.7"/><rect class="cls-2" x="30.69" y="116.94" width="5.93" height="18.21"/><rect class="cls-2" x="119.61" y="116.94" width="5.93" height="18.21"/><path class="cls-2" d="M120.21,87.79h12.51a3.7,3.7,0,1,1,0,7.39h-7.86v13.06"/><path class="cls-2" d="M78.69,18.69a1.12,1.12,0,0,0-1.78,0C75.12,21,71.27,26.33,71.27,29.1a6.54,6.54,0,1,0,13.07,0C84.34,26.33,80.48,21,78.69,18.69Z"/></g></g></svg>