<svg xmlns="http://www.w3.org/2000/svg" viewBox="0 0 143 143"><defs><style>.cls-1,.cls-2{fill:none;}.cls-2{stroke:#fff;stroke-miterlimit:10;stroke-width:1.3px;}</style></defs><g id="Layer_2" data-name="Layer 2"><g id="_01_main" data-name="01_main"><rect class="cls-1" width="143" height="143"/><polyline class="cls-2" points="33.43 88.18 26.54 88.18 26.54 30.4 56.33 30.4 56.33 46.24"/><polyline class="cls-2" points="17.55 88.18 13.8 88.18 13.8 30.4 26.56 30.4"/><rect class="cls-2" x="10.48" y="88.18" width="122.05" height="46.96"/><polyline class="cls-2" points="100.09 88.3 103.15 63.91 104.49 53.27 117.23 53.27 123.49 88.3"/><line class="cls-2" x1="118.82" y1="64.64" x2="102.68" y2="64.64"/><rect class="cls-2" x="35.2" y="54.12" width="43.57" height="34.06"/><rect class="cls-2" x="43.07" y="46.16" width="26.51" height="7.96"/><rect class="cls-2" x="40.99" y="61.3" width="4.44" height="4.44"/><rect class="cls-2" x="49.91" y="61.3" width="4.44" height="4.44"/><rect class="cls-2" x="58.83" y="61.3" width="4.44" height="4.44"/><rect class="cls-2" x="67.75" y="61.3" width="4.44" height="4.44"/><rect class="cls-2" x="58.83" y="70.01" width="4.44" height="4.44"/><rect class="cls-2" x="67.75" y="70.01" width="4.44" height="4.44"/><rect class="cls-2" x="58.83" y="78.72" width="4.44" height="4.44"/><rect class="cls-2" x="67.75" y="78.72" width="4.44" height="4.44"/><rect class="cls-2" x="40.99" y="70.01" width="4.44" height="4.44"/><rect class="cls-2" x="49.91" y="70.01" width="4.44" height="4.44"/><rect class="cls-2" x="40.99" y="78.72" width="4.44" height="4.44"/><rect class="cls-2" x="49.91" y="78.72" width="4.44" height="4.44"/><line class="cls-2" x1="10.48" y1="98.07" x2="132.52" y2="98.07"/><rect class="cls-2" x="56.33" y="110.12" width="13.65" height="25.03"/><rect class="cls-2" x="10.48" y="110.12" width="32.73" height="25.03"/><rect class="cls-2" x="83.01" y="110.12" width="13.65" height="25.03"/><rect class="cls-2" x="109.69" y="110.12" width="13.65" height="25.03"/><polyline class="cls-2" points="33.76 18.25 39.94 18.25 41.81 30.4"/><polyline class="cls-2" points="39.86 18.25 33.68 18.25 31.81 30.4"/><polyline class="cls-2" points="17.9 30.4 17.9 24.33 29.47 24.33 29.47 30.4"/><line class="cls-2" x1="13.26" y1="38.71" x2="25.76" y2="38.71"/><line class="cls-2" x1="13.89" y1="52.21" x2="26.39" y2="52.21"/><line class="cls-2" x1="13.89" y1="65.71" x2="26.39" y2="65.71"/><line class="cls-2" x1="13.89" y1="79.21" x2="26.39" y2="79.21"/><line class="cls-2" x1="110.61" y1="41.43" x2="110.61" y2="52.56"/><path class="cls-2" d="M108.15,33.14a10.89,10.89,0,0,0-7.45-3.42s-.62,5,2.57,8.62c3.38,3.82,6.88,3.15,6.88,3.15A9,9,0,0,0,108.15,33.14Z"/><path class="cls-2" d="M112.74,33.14a10.89,10.89,0,0,1,7.45-3.42s.61,5-2.57,8.62c-3.38,3.82-6.88,3.15-6.88,3.15A9,9,0,0,1,112.74,33.14Z"/></g></g></svg>